<?xml version="1.0" standalone="no"?>
<!DOCTYPE svg PUBLIC "-//W3C//DTD SVG 20010904//EN"
 "http://www.w3.org/TR/2001/REC-SVG-20010904/DTD/svg10.dtd">
<svg version="1.0" xmlns="http://www.w3.org/2000/svg"
 width="1281.000000pt" height="1281.000000pt" viewBox="0 0 1281.000000 1281.000000"
 preserveAspectRatio="xMidYMid meet">
<metadata>
Created by potrace 1.11, written by Peter Selinger 2001-2013
</metadata>
<g transform="translate(0.000000,1281.000000) scale(0.100000,-0.100000)"
fill="#000000" stroke="none">
<path d="M1980 12800 c-14 -4 -56 -17 -94 -29 -37 -12 -104 -40 -148 -62 -326
-162 -538 -444 -614 -814 -4 -22 -9 -2474 -11 -5450 -2 -5837 -5 -5463 48
-5640 35 -118 118 -286 165 -332 8 -8 14 -18 14 -23 0 -5 40 -49 88 -97 339
-339 813 -436 1242 -256 47 20 90 39 95 43 6 4 116 68 245 143 129 74 345 199
480 278 135 78 274 159 310 179 73 41 779 450 880 510 36 21 175 102 310 179
135 78 252 146 260 151 70 46 43 56 347 -119 153 -87 294 -168 313 -179 19
-11 107 -61 195 -112 88 -51 180 -104 205 -118 25 -14 113 -64 195 -112 83
-47 170 -98 195 -111 25 -14 119 -69 210 -121 91 -53 182 -105 203 -117 21
-12 107 -61 190 -110 267 -155 312 -179 369 -196 194 -56 410 40 499 221 16
34 32 73 36 86 9 35 12 382 15 1592 3 1046 4 1111 21 1126 9 9 30 23 44 31 15
8 104 59 198 113 93 54 184 106 200 116 60 34 280 162 295 171 26 16 363 211
405 234 22 12 91 52 154 88 62 37 116 67 118 67 3 0 17 8 31 19 15 10 47 29
72 43 25 14 214 123 420 243 206 120 391 227 410 238 19 11 99 57 178 103 79
46 145 84 148 84 3 0 17 8 32 19 15 10 135 81 267 156 404 233 717 416 775
454 75 49 200 170 259 250 146 199 218 416 219 664 1 242 -54 431 -183 627
-110 167 -246 287 -455 403 -25 13 -139 80 -255 147 -115 68 -223 130 -240
140 -16 9 -156 90 -310 180 -154 89 -294 170 -310 180 -17 9 -87 50 -155 90
-69 40 -138 80 -155 90 -16 9 -239 138 -495 287 -256 149 -478 278 -495 287
-16 9 -37 21 -45 26 -20 13 -402 235 -460 268 -25 13 -49 28 -55 32 -5 4 -30
19 -55 32 -47 27 -541 313 -695 403 -49 29 -178 103 -285 165 -107 62 -266
155 -353 207 -88 51 -161 93 -163 93 -3 0 -49 27 -104 60 -55 33 -104 60 -110
60 -5 0 -10 5 -10 10 0 6 -4 10 -10 10 -5 0 -47 22 -92 49 -46 27 -99 58 -118
68 -19 11 -97 57 -174 102 -76 44 -139 81 -141 81 -1 0 -43 24 -92 54 -49 29
-109 64 -133 78 -62 35 -116 67 -515 298 -192 112 -359 208 -370 214 -11 6
-31 18 -45 27 -14 9 -115 68 -225 132 -110 63 -214 124 -232 134 -17 10 -82
47 -144 83 -61 36 -130 76 -153 88 -22 13 -97 57 -166 97 -69 39 -148 86 -176
102 -27 17 -70 41 -95 55 -24 14 -136 79 -249 145 -176 103 -314 183 -435 253
-16 9 -54 31 -83 49 -29 17 -57 31 -62 31 -6 0 -10 5 -10 10 0 6 -4 10 -9 10
-8 0 -304 167 -371 210 -74 46 -268 151 -320 173 -142 60 -181 66 -428 66
-125 0 -238 -4 -252 -9z"/>
</g>
</svg>
